<?xml version="1.0" encoding="iso-8859-1"?>
<!-- Generator: Adobe Illustrator 17.1.0, SVG Export Plug-In . SVG Version: 6.00 Build 0)  -->
<!DOCTYPE svg PUBLIC "-//W3C//DTD SVG 1.1//EN" "http://www.w3.org/Graphics/SVG/1.1/DTD/svg11.dtd">
<svg version="1.1" id="Capa_1" xmlns="http://www.w3.org/2000/svg" xmlns:xlink="http://www.w3.org/1999/xlink" x="0px" y="0px"
	 viewBox="0 0 448.944 448.944" style="enable-background:new 0 0 448.944 448.944;" xml:space="preserve">
<path d="M432.816,200.99c-7.508-9.202-17.791-21.009-24.144-25.005c-5.888-3.704-13.215-8.313-22.994-8.313
	c-21.979,0-31.818,12.466-31.818,24.821c0,6.994,3.277,11.217,6.57,14.479h-90.433c-3.641-6.469-9.299-10.56-15.769-10.56
	c-4.926,0-9.384,2.369-12.837,6.355c-3.454-3.986-7.911-6.355-12.837-6.355s-9.384,2.369-12.837,6.355
	c-3.454-3.986-7.911-6.355-12.837-6.355c-6.47,0-12.128,4.091-15.768,10.56h-63.504c-0.402-0.357-0.819-0.687-1.251-0.979
	l-30.585-20.666c-3.085-2.084-8.219-3.656-11.942-3.656H8.06c-3.16,0-5.758,1.382-7.127,3.792c-1.368,2.41-1.226,5.349,0.394,8.064
	l17.419,29.211c0.464,0.778,0.464,2.69,0.001,3.467L1.325,255.418c-1.618,2.714-1.761,5.653-0.393,8.063
	c1.369,2.41,3.967,3.792,7.127,3.792h71.77c3.725,0,8.858-1.572,11.941-3.656l30.586-20.665c0.433-0.292,0.85-0.622,1.251-0.979
	h63.504c3.64,6.469,9.298,10.56,15.768,10.56c4.926,0,9.384-2.369,12.837-6.355c3.454,3.986,7.911,6.355,12.837,6.355
	s9.384-2.369,12.837-6.355c3.454,3.986,7.911,6.355,12.837,6.355c6.47,0,12.128-4.091,15.769-10.56h90.395
	c-3.282,3.277-6.533,7.515-6.533,14.479c0,12.354,9.839,24.821,31.818,24.821c9.779,0,17.106-4.609,22.994-8.313
	c6.352-3.995,16.635-15.804,24.144-25.007c16.128-19.768,16.128-22.183,16.128-23.48
	C448.944,223.174,448.944,220.757,432.816,200.99z"/>
<g>
</g>
<g>
</g>
<g>
</g>
<g>
</g>
<g>
</g>
<g>
</g>
<g>
</g>
<g>
</g>
<g>
</g>
<g>
</g>
<g>
</g>
<g>
</g>
<g>
</g>
<g>
</g>
<g>
</g>
</svg>
